<svg width="24" height="20" viewBox="0 0 24 20" fill="none" xmlns="http://www.w3.org/2000/svg">
<path d="M14.6191 6.65568C15.2744 6.42158 15.9796 6.29419 16.7143 6.29419C17.4344 6.29419 18.1262 6.41659 18.7706 6.64192C21.2323 7.50282 23 9.86629 23 12.647C23 16.1556 20.1858 18.9999 16.7143 18.9999H5.71428C3.11066 18.9999 1 16.8667 1 14.2353C1 11.6038 3.11066 9.47063 5.71428 9.47063C6.02681 9.47063 6.33225 9.50134 6.62778 9.55995C7.24865 9.68325 7.82581 9.92962 8.33334 10.273" stroke="#9097FF" stroke-width="1.6" stroke-linecap="round"/>
<path d="M6.62748 9.55987C6.37547 8.8724 6.23779 8.1289 6.23779 7.35284C6.23779 3.84426 9.05201 1 12.5235 1C15.7571 1 18.4206 3.46788 18.7702 6.64176" stroke="#9097FF" stroke-width="1.6" stroke-linecap="round"/>
</svg>
