<svg width="22" height="22" viewBox="0 0 22 22" fill="none" xmlns="http://www.w3.org/2000/svg">
<path d="M11.4005 7.05593C11.2785 7.17812 11.2099 7.34374 11.2099 7.51643C11.2099 7.68911 11.2785 7.85474 11.4005 7.97692L13.5466 10.123L11.4005 12.2691C11.3365 12.3287 11.2851 12.4007 11.2495 12.4806C11.2139 12.5606 11.1948 12.6468 11.1932 12.7343C11.1917 12.8218 11.2078 12.9087 11.2405 12.9899C11.2733 13.071 11.3221 13.1447 11.384 13.2066C11.4459 13.2685 11.5196 13.3173 11.6007 13.35C11.6818 13.3828 11.7688 13.3989 11.8563 13.3974C11.9437 13.3958 12.03 13.3767 12.11 13.3411C12.1899 13.3054 12.2618 13.2541 12.3215 13.1901L14.9281 10.5835C15.0501 10.4613 15.1187 10.2957 15.1187 10.123C15.1187 9.95032 15.0501 9.78469 14.9281 9.66251L12.3215 7.05593C12.1993 6.9339 12.0337 6.86536 11.861 6.86536C11.6883 6.86536 11.5227 6.9339 11.4005 7.05593ZM8.84607 7.97692C8.96118 7.85339 9.02384 7.69001 9.02086 7.52119C9.01789 7.35237 8.94949 7.19129 8.8301 7.0719C8.71071 6.95251 8.54964 6.88412 8.38082 6.88114C8.212 6.87816 8.04861 6.94083 7.92508 7.05593L5.3185 9.66251C5.19647 9.78469 5.12793 9.95032 5.12793 10.123C5.12793 10.2957 5.19647 10.4613 5.3185 10.5835L7.92508 13.1901C8.04861 13.3052 8.212 13.3678 8.38082 13.3649C8.54964 13.3619 8.71071 13.2935 8.8301 13.1741C8.94949 13.0547 9.01789 12.8936 9.02086 12.7248C9.02384 12.556 8.96118 12.3926 8.84607 12.2691L6.69999 10.123L8.84607 7.97692Z" fill="#9097FF" stroke="#9097FF" stroke-width="0.1"/>
<path fill-rule="evenodd" clip-rule="evenodd" d="M10.123 1C5.0845 1 1 5.0845 1 10.123C1 15.1615 5.0845 19.246 10.123 19.246C12.4081 19.246 14.496 18.4058 16.0964 17.0183L19.8716 20.7926C19.9313 20.8566 20.0032 20.908 20.0831 20.9436C20.1631 20.9792 20.2494 20.9984 20.3369 20.9999C20.4244 21.0014 20.5113 20.9853 20.5924 20.9526C20.6736 20.9198 20.7473 20.871 20.8091 20.8091C20.871 20.7473 20.9198 20.6736 20.9526 20.5924C20.9853 20.5113 21.0014 20.4244 20.9999 20.3369C20.9984 20.2494 20.9792 20.1631 20.9436 20.0831C20.908 20.0032 20.8566 19.9313 20.7926 19.8716L17.0183 16.0964C18.4579 14.4396 19.2492 12.3178 19.246 10.123C19.246 5.0845 15.1615 1 10.123 1ZM2.30329 10.123C2.30329 9.09611 2.50555 8.07927 2.89853 7.13053C3.29151 6.1818 3.8675 5.31976 4.59363 4.59363C5.31976 3.8675 6.1818 3.29151 7.13053 2.89853C8.07927 2.50555 9.09611 2.30329 10.123 2.30329C11.1499 2.30329 12.1668 2.50555 13.1155 2.89853C14.0642 3.29151 14.9263 3.8675 15.6524 4.59363C16.3785 5.31976 16.9545 6.1818 17.3475 7.13053C17.7405 8.07927 17.9427 9.09611 17.9427 10.123C17.9427 12.1969 17.1189 14.1859 15.6524 15.6524C14.1859 17.1189 12.1969 17.9427 10.123 17.9427C8.04909 17.9427 6.06012 17.1189 4.59363 15.6524C3.12715 14.1859 2.30329 12.1969 2.30329 10.123Z" fill="#9097FF" stroke="#9097FF" stroke-width="0.1"/>
</svg>
