<svg width="28" height="22" viewBox="0 0 28 22" fill="none" xmlns="http://www.w3.org/2000/svg">
<path d="M16.7368 21H7.15789C6.97643 21 6.8024 20.9298 6.67408 20.8047C6.54577 20.6797 6.47368 20.5101 6.47368 20.3333V17H16.7368M16.7368 21V17M16.7368 21H26.3158C26.4973 21 26.6713 20.9298 26.7996 20.8047C26.9279 20.6797 27 20.5101 27 20.3333V17.6667C27 17.4899 26.9279 17.3203 26.7996 17.1953C26.6713 17.0702 26.4973 17 26.3158 17H16.7368M16.7368 9H7.15789C7.07195 8.99297 6.98544 9.00317 6.9037 9.02997C6.82195 9.05676 6.7467 9.09959 6.68259 9.1558C6.61849 9.21202 6.56688 9.28044 6.53095 9.35683C6.49502 9.43323 6.47553 9.51598 6.47368 9.6V13H16.7368M16.7368 9V13M16.7368 9H26.3158C26.4973 9 26.6713 9.07024 26.7996 9.19526C26.9279 9.32029 27 9.48986 27 9.66667V12.3333C27 12.5101 26.9279 12.6797 26.7996 12.8047C26.6713 12.9298 26.4973 13 26.3158 13H16.7368M11.2632 17H1.68421C1.50275 17 1.32871 16.9298 1.2004 16.8047C1.07209 16.6797 1 16.5101 1 16.3333V13.6667C1 13.4899 1.07209 13.3203 1.2004 13.1953C1.32871 13.0702 1.50275 13 1.68421 13H11.2632M11.2632 17V13M11.2632 17H21.5263V13H11.2632M11.2632 5.6C11.265 5.51598 11.2845 5.43323 11.3204 5.35683C11.3564 5.28044 11.408 5.21202 11.4721 5.1558C11.5362 5.09959 11.6114 5.05676 11.6932 5.02997C11.7749 5.00317 11.8614 4.99297 11.9474 5H20.8421C20.9281 4.99297 21.0146 5.00317 21.0963 5.02997C21.178 5.05676 21.2533 5.09959 21.3174 5.1558C21.3815 5.21202 21.4331 5.28044 21.4691 5.35683C21.505 5.43323 21.5245 5.51598 21.5263 5.6V9H11.2632M11.2632 5.6V9M11.2632 5.6C11.2613 5.51598 11.2418 5.43323 11.2059 5.35683C11.17 5.28044 11.1184 5.21202 11.0542 5.1558C10.9901 5.09959 10.9149 5.05676 10.8331 5.02997C10.7514 5.00317 10.6649 4.99297 10.5789 5H1.68421C1.50275 5 1.32871 5.07024 1.2004 5.19526C1.07209 5.32029 1 5.48986 1 5.66667V8.33333C1 8.51014 1.07209 8.67971 1.2004 8.80474C1.32871 8.92976 1.50275 9 1.68421 9H11.2632M7.15789 1C6.97643 1 6.8024 1.07024 6.67408 1.19526C6.54577 1.32029 6.47368 1.48986 6.47368 1.66667V5H16.7368V1.66667C16.7368 1.48986 16.6648 1.32029 16.5364 1.19526C16.4081 1.07024 16.2341 1 16.0526 1H7.15789Z" stroke="#9097FF" stroke-width="1.3" stroke-linecap="square"/>
</svg>
