<svg width="24" height="22" viewBox="0 0 24 22" fill="none" xmlns="http://www.w3.org/2000/svg">
<path d="M20.283 12.3119C20.1222 9.75391 18.7504 7.41628 16.5877 6.00011C16.6028 5.85053 16.6109 5.69889 16.6109 5.54544C16.6109 3.03902 14.5424 1 12 1C9.45755 1 7.3891 3.03908 7.3891 5.54544C7.3891 5.69889 7.39703 5.85053 7.41216 6.00011C5.25002 7.41592 3.87837 9.75282 3.71705 12.3101C2.08829 13.035 1 14.6524 1 16.4546C1 18.9609 3.06845 21 5.6109 21C6.58988 21 7.5243 20.6996 8.30421 20.1444C9.44735 20.7052 10.7118 21 12 21C13.2892 21 14.555 20.7045 15.699 20.1428C16.4568 20.6814 17.3856 21 18.3891 21C20.9315 21 23 18.9609 23 16.4546C23 14.6135 21.8832 13.0257 20.283 12.3119ZM12 2.81824C13.5255 2.81824 14.7665 4.04169 14.7665 5.5455C14.7665 7.04932 13.5254 8.27277 12 8.27277C10.4745 8.27277 9.23346 7.04932 9.23346 5.5455C9.23346 4.04169 10.4745 2.81824 12 2.81824ZM2.84436 16.4546C2.84436 15.2326 3.67733 14.1517 4.86996 13.8259C5.10954 13.7605 5.3589 13.7273 5.6109 13.7273C7.13637 13.7273 8.37743 14.9507 8.37743 16.4546C8.37743 17.1927 8.08314 17.8839 7.54858 18.4011C7.02822 18.9046 6.34003 19.1818 5.6109 19.1818C4.08543 19.1818 2.84436 17.9584 2.84436 16.4546ZM9.60455 18.7282C10.0066 18.045 10.2218 17.2671 10.2218 16.4545C10.2218 13.9483 8.15371 11.9094 5.61163 11.9091C5.84845 10.2932 6.70878 8.82658 8.00862 7.81689C8.80692 9.17482 10.2965 10.0909 12 10.0909C13.7034 10.0909 15.193 9.17482 15.9913 7.81689C17.2913 8.82658 18.1516 10.2932 18.3884 11.9091C15.8462 11.9095 13.7782 13.9483 13.7782 16.4545C13.7782 17.282 14.0048 18.0579 14.3984 18.727C13.6401 19.0259 12.8264 19.1818 12 19.1818C11.1746 19.1818 10.3619 19.0263 9.60455 18.7282ZM18.3891 19.1818C16.8636 19.1818 15.6226 17.9584 15.6226 16.4546C15.6226 14.9507 16.8636 13.7273 18.3891 13.7273C19.9146 13.7273 21.1556 14.9507 21.1556 16.4546C21.1556 17.9584 19.9145 19.1818 18.3891 19.1818Z" fill="#9097FF" stroke="#140E1D" stroke-width="0.4"/>
</svg>
