<svg width="20" height="20" viewBox="0 0 20 20" fill="none" xmlns="http://www.w3.org/2000/svg">
<path d="M8.29959 6.23967C8.58145 6.5432 8.56387 7.01775 8.26034 7.2996L5.35221 10L8.26034 12.7004C8.56387 12.9823 8.58145 13.4568 8.29959 13.7603C8.01774 14.0639 7.54319 14.0815 7.23966 13.7996L3.73966 10.5496C3.58684 10.4077 3.5 10.2086 3.5 10C3.5 9.79145 3.58684 9.59232 3.73966 9.45041L7.23966 6.20041C7.54319 5.91856 8.01774 5.93613 8.29959 6.23967Z" fill="#9097FF"/>
<path d="M11.7397 7.2996C11.4361 7.01775 11.4186 6.5432 11.7004 6.23967C11.9823 5.93613 12.4568 5.91856 12.7603 6.20041L16.2603 9.45041C16.4132 9.59232 16.5 9.79145 16.5 10C16.5 10.2086 16.4132 10.4077 16.2603 10.5496L12.7603 13.7996C12.4568 14.0815 11.9823 14.0639 11.7004 13.7603C11.4186 13.4568 11.4361 12.9823 11.7397 12.7004L14.6478 10L11.7397 7.2996Z" fill="#9097FF"/>
<path fill-rule="evenodd" clip-rule="evenodd" d="M0 1.75C0 0.783503 0.783501 0 1.75 0H18.25C19.2165 0 20 0.783501 20 1.75V18.25C20 19.2165 19.2165 20 18.25 20H1.75C0.783503 20 0 19.2165 0 18.25V1.75ZM1.75 1.5C1.61193 1.5 1.5 1.61193 1.5 1.75V18.25C1.5 18.3881 1.61193 18.5 1.75 18.5H18.25C18.3881 18.5 18.5 18.3881 18.5 18.25V1.75C18.5 1.61193 18.3881 1.5 18.25 1.5H1.75Z" fill="#9097FF"/>
</svg>
