<svg width="32" height="32" viewBox="0 0 32 32" fill="none" xmlns="http://www.w3.org/2000/svg">
<path d="M30.3724 1.62734C28.98 0.235124 27.0114 -0.308961 25.1068 0.171114L9.422 4.09172C6.78118 4.74783 4.74855 6.79614 4.09235 9.42055L0.17114 25.1189C-0.309008 27.0232 0.23516 28.9915 1.62759 30.3838C2.68392 31.4239 4.07635 32 5.51679 32C5.96493 32 6.42907 31.952 6.87721 31.824L22.578 27.9034C25.2028 27.2473 27.2514 25.2149 27.9076 22.5745L31.8289 6.87616C32.309 4.97186 31.7648 3.00355 30.3724 1.62734ZM16 22.2065C12.575 22.2065 9.79011 19.422 9.79011 15.9975C9.79011 12.573 12.575 9.78861 16 9.78861C19.425 9.78861 22.2099 12.573 22.2099 15.9975C22.2099 19.422 19.425 22.2065 16 22.2065Z" fill="#9097FF"/>
</svg>
