<svg width="32" height="32" viewBox="0 0 32 32" fill="none" xmlns="http://www.w3.org/2000/svg">
<path d="M9.14286 10.6667V3.55556C9.14286 2.90133 9.65486 2.37037 10.2857 2.37037V1.18519C10.2857 0.530963 10.7977 0 11.4286 0H14.8571C15.488 0 16 0.530963 16 1.18519V2.37037C16.6309 2.37037 17.1429 2.90133 17.1429 3.55556V10.6667H9.14286ZM30.8571 21.3333V20.1481C30.8571 19.4939 30.3451 18.963 29.7143 18.963H26.2857C25.6549 18.963 25.1429 19.4939 25.1429 20.1481V21.3333H24V20.1481C24 19.4939 23.488 18.963 22.8571 18.963H19.4286C18.7977 18.963 18.2857 19.4939 18.2857 20.1481V21.3333H0V30.8148C0 31.469 0.512 32 1.14286 32H30.8571C31.488 32 32 31.469 32 30.8148V22.5185C32 21.8643 31.488 21.3333 30.8571 21.3333ZM17.1429 20.1481V11.8519H8V10.6667C8 10.0124 7.488 9.48148 6.85714 9.48148H3.42857C2.79771 9.48148 2.28571 10.0124 2.28571 10.6667V11.8519H1.14286C0.512 11.8519 0 12.3828 0 13.037V20.1481H17.1429Z" fill="#9097FF"/>
</svg>
