<svg width="32" height="32" viewBox="0 0 32 32" fill="none" xmlns="http://www.w3.org/2000/svg">
<path d="M0 32H5.81818V12.8H0V32ZM32 14.4C32 12.64 30.6909 11.2 29.0909 11.2H19.9127L21.2945 3.888L21.3382 3.376C21.3382 2.72 21.0909 2.112 20.6982 1.68L19.1564 0L9.58545 10.544C9.04727 11.12 8.72727 11.92 8.72727 12.8V28.8C8.72727 30.56 10.0364 32 11.6364 32H24.7273C25.9345 32 26.9673 31.2 27.4036 30.048L31.7964 18.768C31.9273 18.4 32 18.016 32 17.6V14.544L31.9855 14.528L32 14.4Z" fill="#9097FF"/>
</svg>
