<svg width="32" height="32" viewBox="0 0 32 32" fill="none" xmlns="http://www.w3.org/2000/svg">
<path d="M3.50781 21.4846L10.5174 28.4942L13.1895 27.3938L4.60932 18.8125L3.50781 21.4846Z" fill="#9097FF"/>
<path d="M31.2931 0.707458C30.7479 0.162141 29.9756 -0.0898613 29.2137 0.0288271L24.3135 0.793458C22.2618 1.11402 20.3657 2.07834 18.8969 3.54611L14.6781 7.76383L13.17 9.2724L11.4198 11.0232L10.5475 10.1502L11.902 8.79621L9.08069 7.73883C7.74468 7.23757 6.2393 7.56357 5.23035 8.57252L0.410688 13.3916C0.0629354 13.7393 -0.0769407 14.2422 0.0411852 14.7178C0.158749 15.1929 0.517377 15.5739 0.986505 15.7186L6.10117 17.3018L14.6977 25.8999L16.2814 31.014C16.4256 31.4837 16.8066 31.8406 17.2828 31.9588C17.7579 32.0768 18.2613 31.9375 18.6085 31.5898L23.4271 26.7701C24.4361 25.7612 24.7621 24.2563 24.2619 22.9198L23.2039 20.099L21.8499 21.453L20.977 20.5801L22.7277 18.8287L24.2353 17.3213L28.454 13.103C29.9229 11.6342 30.8867 9.73697 31.2062 7.68583L31.9713 2.78616C32.0904 2.02441 31.8385 1.25221 31.2931 0.707458ZM24.9029 12.1595C23.5048 13.5576 21.2381 13.5576 19.8405 12.1595C18.4424 10.7619 18.4424 8.49521 19.84 7.09657C21.2381 5.69787 23.5048 5.699 24.9029 7.09713C26.3005 8.49527 26.301 10.7608 24.9029 12.1595Z" fill="#9097FF"/>
</svg>
